<mxfile host="app.diagrams.net" agent="Mozilla/5.0 (Windows NT 10.0; Win64; x64) AppleWebKit/537.36 (KHTML, like Gecko) Chrome/129.0.0.0 Safari/537.36" version="24.7.16">
  <diagram name="PÃ¡gina-1" id="-WLVGHT9b2VVmpZDobbk">
    <mxGraphModel dx="1434" dy="784" grid="1" gridSize="10" guides="1" tooltips="1" connect="1" arrows="1" fold="1" page="1" pageScale="1" pageWidth="827" pageHeight="1169" math="0" shadow="0">
      <root>
        <mxCell id="0" />
        <mxCell id="1" parent="0" />
        <mxCell id="a7j1plq0Z2ckK7r_DMjt-1" value="Cliente" style="swimlane;fontStyle=1;align=center;verticalAlign=top;childLayout=stackLayout;horizontal=1;startSize=26;horizontalStack=0;resizeParent=1;resizeParentMax=0;resizeLast=0;collapsible=1;marginBottom=0;whiteSpace=wrap;html=1;" parent="1" vertex="1">
          <mxGeometry x="334" y="260" width="160" height="190" as="geometry" />
        </mxCell>
        <mxCell id="a7j1plq0Z2ckK7r_DMjt-2" value="- limite: double&lt;div&gt;- compras: double&lt;/div&gt;&lt;div&gt;- saldo: double&lt;/div&gt;" style="text;strokeColor=none;fillColor=none;align=left;verticalAlign=top;spacingLeft=4;spacingRight=4;overflow=hidden;rotatable=0;points=[[0,0.5],[1,0.5]];portConstraint=eastwest;whiteSpace=wrap;html=1;" parent="a7j1plq0Z2ckK7r_DMjt-1" vertex="1">
          <mxGeometry y="26" width="160" height="54" as="geometry" />
        </mxCell>
        <mxCell id="a7j1plq0Z2ckK7r_DMjt-3" value="" style="line;strokeWidth=1;fillColor=none;align=left;verticalAlign=middle;spacingTop=-1;spacingLeft=3;spacingRight=3;rotatable=0;labelPosition=right;points=[];portConstraint=eastwest;strokeColor=inherit;" parent="a7j1plq0Z2ckK7r_DMjt-1" vertex="1">
          <mxGeometry y="80" width="160" height="8" as="geometry" />
        </mxCell>
        <mxCell id="a7j1plq0Z2ckK7r_DMjt-4" value="+ getLimite(): double&lt;div&gt;+ setLimite(): double&lt;/div&gt;&lt;div&gt;+ getCompras(): double&lt;div&gt;+ setCompras(): double&lt;/div&gt;&lt;/div&gt;&lt;div&gt;+ getSaldo(): double&lt;div&gt;+ setSaldo(): double&lt;/div&gt;&lt;/div&gt;" style="text;strokeColor=none;fillColor=none;align=left;verticalAlign=top;spacingLeft=4;spacingRight=4;overflow=hidden;rotatable=0;points=[[0,0.5],[1,0.5]];portConstraint=eastwest;whiteSpace=wrap;html=1;" parent="a7j1plq0Z2ckK7r_DMjt-1" vertex="1">
          <mxGeometry y="88" width="160" height="102" as="geometry" />
        </mxCell>
        <mxCell id="a7j1plq0Z2ckK7r_DMjt-22" value="" style="edgeStyle=orthogonalEdgeStyle;rounded=0;orthogonalLoop=1;jettySize=auto;html=1;entryX=0.013;entryY=-0.02;entryDx=0;entryDy=0;entryPerimeter=0;" parent="1" source="a7j1plq0Z2ckK7r_DMjt-5" target="a7j1plq0Z2ckK7r_DMjt-4" edge="1">
          <mxGeometry relative="1" as="geometry">
            <mxPoint x="160" y="455" as="targetPoint" />
          </mxGeometry>
        </mxCell>
        <mxCell id="a7j1plq0Z2ckK7r_DMjt-5" value="ClienteA&lt;div&gt;&lt;br&gt;&lt;/div&gt;" style="swimlane;fontStyle=1;align=center;verticalAlign=top;childLayout=stackLayout;horizontal=1;startSize=26;horizontalStack=0;resizeParent=1;resizeParentMax=0;resizeLast=0;collapsible=1;marginBottom=0;whiteSpace=wrap;html=1;" parent="1" vertex="1">
          <mxGeometry x="70" y="580" width="180" height="170" as="geometry" />
        </mxCell>
        <mxCell id="a7j1plq0Z2ckK7r_DMjt-6" value="- desconto: integer&lt;div&gt;- valorDesconto: double&lt;/div&gt;" style="text;strokeColor=none;fillColor=none;align=left;verticalAlign=top;spacingLeft=4;spacingRight=4;overflow=hidden;rotatable=0;points=[[0,0.5],[1,0.5]];portConstraint=eastwest;whiteSpace=wrap;html=1;" parent="a7j1plq0Z2ckK7r_DMjt-5" vertex="1">
          <mxGeometry y="26" width="180" height="44" as="geometry" />
        </mxCell>
        <mxCell id="a7j1plq0Z2ckK7r_DMjt-7" value="" style="line;strokeWidth=1;fillColor=none;align=left;verticalAlign=middle;spacingTop=-1;spacingLeft=3;spacingRight=3;rotatable=0;labelPosition=right;points=[];portConstraint=eastwest;strokeColor=inherit;" parent="a7j1plq0Z2ckK7r_DMjt-5" vertex="1">
          <mxGeometry y="70" width="180" height="8" as="geometry" />
        </mxCell>
        <mxCell id="a7j1plq0Z2ckK7r_DMjt-8" value="+ getDesconto(): integer&lt;div&gt;+ setDesconto(): integer&lt;br&gt;&lt;/div&gt;&lt;div&gt;+ getValorDesconto(): double&lt;div&gt;+ setValorDesconto(): double&lt;/div&gt;&lt;/div&gt;&lt;div&gt;+ aumentarLimite(): double&lt;/div&gt;" style="text;strokeColor=none;fillColor=none;align=left;verticalAlign=top;spacingLeft=4;spacingRight=4;overflow=hidden;rotatable=0;points=[[0,0.5],[1,0.5]];portConstraint=eastwest;whiteSpace=wrap;html=1;" parent="a7j1plq0Z2ckK7r_DMjt-5" vertex="1">
          <mxGeometry y="78" width="180" height="92" as="geometry" />
        </mxCell>
        <mxCell id="a7j1plq0Z2ckK7r_DMjt-20" value="" style="edgeStyle=orthogonalEdgeStyle;rounded=0;orthogonalLoop=1;jettySize=auto;html=1;entryX=0.5;entryY=1;entryDx=0;entryDy=0;entryPerimeter=0;" parent="1" source="a7j1plq0Z2ckK7r_DMjt-9" target="a7j1plq0Z2ckK7r_DMjt-4" edge="1">
          <mxGeometry relative="1" as="geometry">
            <mxPoint x="414" y="455" as="targetPoint" />
          </mxGeometry>
        </mxCell>
        <mxCell id="a7j1plq0Z2ckK7r_DMjt-9" value="ClienteB" style="swimlane;fontStyle=1;align=center;verticalAlign=top;childLayout=stackLayout;horizontal=1;startSize=26;horizontalStack=0;resizeParent=1;resizeParentMax=0;resizeLast=0;collapsible=1;marginBottom=0;whiteSpace=wrap;html=1;" parent="1" vertex="1">
          <mxGeometry x="324" y="580" width="180" height="150" as="geometry" />
        </mxCell>
        <mxCell id="a7j1plq0Z2ckK7r_DMjt-10" value="- desconto: integer&lt;div&gt;- valorDesconto: double&lt;/div&gt;" style="text;strokeColor=none;fillColor=none;align=left;verticalAlign=top;spacingLeft=4;spacingRight=4;overflow=hidden;rotatable=0;points=[[0,0.5],[1,0.5]];portConstraint=eastwest;whiteSpace=wrap;html=1;" parent="a7j1plq0Z2ckK7r_DMjt-9" vertex="1">
          <mxGeometry y="26" width="180" height="44" as="geometry" />
        </mxCell>
        <mxCell id="a7j1plq0Z2ckK7r_DMjt-11" value="" style="line;strokeWidth=1;fillColor=none;align=left;verticalAlign=middle;spacingTop=-1;spacingLeft=3;spacingRight=3;rotatable=0;labelPosition=right;points=[];portConstraint=eastwest;strokeColor=inherit;" parent="a7j1plq0Z2ckK7r_DMjt-9" vertex="1">
          <mxGeometry y="70" width="180" height="8" as="geometry" />
        </mxCell>
        <mxCell id="a7j1plq0Z2ckK7r_DMjt-12" value="+ getDesconto(): integer&lt;div&gt;+ setDesconto(): integer&lt;br&gt;&lt;/div&gt;&lt;div&gt;+ getValorDesconto(): double&lt;div&gt;+ setValorDesconto(): double&lt;/div&gt;&lt;/div&gt;" style="text;strokeColor=none;fillColor=none;align=left;verticalAlign=top;spacingLeft=4;spacingRight=4;overflow=hidden;rotatable=0;points=[[0,0.5],[1,0.5]];portConstraint=eastwest;whiteSpace=wrap;html=1;" parent="a7j1plq0Z2ckK7r_DMjt-9" vertex="1">
          <mxGeometry y="78" width="180" height="72" as="geometry" />
        </mxCell>
        <mxCell id="a7j1plq0Z2ckK7r_DMjt-25" value="" style="edgeStyle=orthogonalEdgeStyle;rounded=0;orthogonalLoop=1;jettySize=auto;html=1;entryX=1;entryY=-0.039;entryDx=0;entryDy=0;entryPerimeter=0;" parent="1" target="a7j1plq0Z2ckK7r_DMjt-4" edge="1">
          <mxGeometry relative="1" as="geometry">
            <mxPoint x="650" y="503" as="targetPoint" />
            <mxPoint x="650" y="580" as="sourcePoint" />
          </mxGeometry>
        </mxCell>
        <mxCell id="EZ_SoktLRGBfuS5surkD-2" value="ClienteC" style="swimlane;fontStyle=1;align=center;verticalAlign=top;childLayout=stackLayout;horizontal=1;startSize=26;horizontalStack=0;resizeParent=1;resizeParentMax=0;resizeLast=0;collapsible=1;marginBottom=0;whiteSpace=wrap;html=1;" vertex="1" parent="1">
          <mxGeometry x="570" y="580" width="160" height="80" as="geometry" />
        </mxCell>
        <mxCell id="EZ_SoktLRGBfuS5surkD-4" value="" style="line;strokeWidth=1;fillColor=none;align=left;verticalAlign=middle;spacingTop=-1;spacingLeft=3;spacingRight=3;rotatable=0;labelPosition=right;points=[];portConstraint=eastwest;strokeColor=inherit;" vertex="1" parent="EZ_SoktLRGBfuS5surkD-2">
          <mxGeometry y="26" width="160" height="8" as="geometry" />
        </mxCell>
        <mxCell id="EZ_SoktLRGBfuS5surkD-5" value="&lt;div&gt;+ getCompras(): double&lt;div&gt;+ setCompras(): double&lt;/div&gt;&lt;/div&gt;" style="text;strokeColor=none;fillColor=none;align=left;verticalAlign=top;spacingLeft=4;spacingRight=4;overflow=hidden;rotatable=0;points=[[0,0.5],[1,0.5]];portConstraint=eastwest;whiteSpace=wrap;html=1;" vertex="1" parent="EZ_SoktLRGBfuS5surkD-2">
          <mxGeometry y="34" width="160" height="46" as="geometry" />
        </mxCell>
        <mxCell id="EZ_SoktLRGBfuS5surkD-6" value="Main" style="swimlane;fontStyle=1;align=center;verticalAlign=top;childLayout=stackLayout;horizontal=1;startSize=26;horizontalStack=0;resizeParent=1;resizeParentMax=0;resizeLast=0;collapsible=1;marginBottom=0;whiteSpace=wrap;html=1;" vertex="1" parent="1">
          <mxGeometry x="334" y="50" width="160" height="140" as="geometry" />
        </mxCell>
        <mxCell id="EZ_SoktLRGBfuS5surkD-8" value="" style="line;strokeWidth=1;fillColor=none;align=left;verticalAlign=middle;spacingTop=-1;spacingLeft=3;spacingRight=3;rotatable=0;labelPosition=right;points=[];portConstraint=eastwest;strokeColor=inherit;" vertex="1" parent="EZ_SoktLRGBfuS5surkD-6">
          <mxGeometry y="26" width="160" height="8" as="geometry" />
        </mxCell>
        <mxCell id="EZ_SoktLRGBfuS5surkD-9" value="+ getLimite(): double&lt;div&gt;+ setLimite(): double&lt;/div&gt;&lt;div&gt;+ getCompras(): double&lt;div&gt;+ setCompras(): double&lt;/div&gt;&lt;/div&gt;&lt;div&gt;+ getSaldo(): double&lt;div&gt;+ setSaldo(): double&lt;/div&gt;&lt;/div&gt;" style="text;strokeColor=none;fillColor=none;align=left;verticalAlign=top;spacingLeft=4;spacingRight=4;overflow=hidden;rotatable=0;points=[[0,0.5],[1,0.5]];portConstraint=eastwest;whiteSpace=wrap;html=1;" vertex="1" parent="EZ_SoktLRGBfuS5surkD-6">
          <mxGeometry y="34" width="160" height="106" as="geometry" />
        </mxCell>
        <mxCell id="EZ_SoktLRGBfuS5surkD-13" value="" style="endArrow=none;html=1;rounded=0;" edge="1" parent="1" target="EZ_SoktLRGBfuS5surkD-9">
          <mxGeometry width="50" height="50" relative="1" as="geometry">
            <mxPoint x="414" y="260" as="sourcePoint" />
            <mxPoint x="440" y="280" as="targetPoint" />
          </mxGeometry>
        </mxCell>
      </root>
    </mxGraphModel>
  </diagram>
</mxfile>
